# xmcd
#
# Track frame offsets:
#	150
#	13828
#	25991
#	37034
#	49203
#	60917
#	73957
#	88843
#	101908
#	115713
#	127900
#	139202
#	152412
#	162977
#	177155
#
# Disc length: 2526 seconds
#
# Revision: 1
# Processed by: cddbd v1.5.1PL2 Copyright (c) Steve Scherf et al.
# Submitted via: audiograbber 1.83.01
#
DISCID=cc09dc0f
DTITLE=Günter Noris and his Boogie Boys - Swing-Dance-Fever
DYEAR=1999
DGENRE=Swing-Dance
TTITLE0=Here we go (Jive)
TTITLE1=Dance as Dance can (Swing)
TTITLE2=Tanze mit mir in den morgen (Jitterbug)
TTITLE3=Rockabilly Boogie (Boogie Woogie)
TTITLE4=Step by Step (Swing)
TTITLE5=Mac the Knife (Mäkie Messer) (Schuffle-Jive)
TTITLE6=Blue Lady (Blues)
TTITLE7=Salute to Elvis (Jindy Hop)
TTITLE8=Dirty Mambo (Mambo)
TTITLE9=High Live Jive (Jive)
TTITLE10=Lover's Dream (Medium Swing)
TTITLE11=Tipsy Bumblebee (Jitterbug)
TTITLE12=Boogie Baby (Boogie Woogie)
TTITLE13=Rock'n Roll Forever (Rock'n Roll)
TTITLE14=Kleine Mädchen müssen schlafen geh'n (Swing)
EXTD=
EXTT0=
EXTT1=
EXTT2=
EXTT3=
EXTT4=
EXTT5=
EXTT6=
EXTT7=
EXTT8=
EXTT9=
EXTT10=
EXTT11=
EXTT12=
EXTT13=
EXTT14=
PLAYORDER=
